<svg id="visual" viewBox="0 0 1920 800" width="1920" height="800" xmlns="http://www.w3.org/2000/svg" xmlns:xlink="http://www.w3.org/1999/xlink" version="1.1"><rect x="0" y="0" width="1920" height="800" fill="#001220"></rect><path d="M0 619L35.5 590.2C71 561.3 142 503.7 213.2 503.2C284.3 502.7 355.7 559.3 426.8 567.2C498 575 569 534 640 531.8C711 529.7 782 566.3 853.2 558.8C924.3 551.3 995.7 499.7 1066.8 474.3C1138 449 1209 450 1280 447.8C1351 445.7 1422 440.3 1493.2 474.5C1564.3 508.7 1635.7 582.3 1706.8 604.5C1778 626.7 1849 597.3 1884.5 582.7L1920 568L1920 0L1884.5 0C1849 0 1778 0 1706.8 0C1635.7 0 1564.3 0 1493.2 0C1422 0 1351 0 1280 0C1209 0 1138 0 1066.8 0C995.7 0 924.3 0 853.2 0C782 0 711 0 640 0C569 0 498 0 426.8 0C355.7 0 284.3 0 213.2 0C142 0 71 0 35.5 0L0 0Z" fill="#fa7268"></path><path d="M0 454L35.5 468.2C71 482.3 142 510.7 213.2 506.2C284.3 501.7 355.7 464.3 426.8 469.7C498 475 569 523 640 513.3C711 503.7 782 436.3 853.2 438.3C924.3 440.3 995.7 511.7 1066.8 530.2C1138 548.7 1209 514.3 1280 483.8C1351 453.3 1422 426.7 1493.2 437.8C1564.3 449 1635.7 498 1706.8 523.2C1778 548.3 1849 549.7 1884.5 550.3L1920 551L1920 0L1884.5 0C1849 0 1778 0 1706.8 0C1635.7 0 1564.3 0 1493.2 0C1422 0 1351 0 1280 0C1209 0 1138 0 1066.8 0C995.7 0 924.3 0 853.2 0C782 0 711 0 640 0C569 0 498 0 426.8 0C355.7 0 284.3 0 213.2 0C142 0 71 0 35.5 0L0 0Z" fill="#f36567"></path><path d="M0 494L35.5 464.8C71 435.7 142 377.3 213.2 352.3C284.3 327.3 355.7 335.7 426.8 357.2C498 378.7 569 413.3 640 436.8C711 460.3 782 472.7 853.2 468.2C924.3 463.7 995.7 442.3 1066.8 432C1138 421.7 1209 422.3 1280 431.5C1351 440.7 1422 458.3 1493.2 456.3C1564.3 454.3 1635.7 432.7 1706.8 405.5C1778 378.3 1849 345.7 1884.5 329.3L1920 313L1920 0L1884.5 0C1849 0 1778 0 1706.8 0C1635.7 0 1564.3 0 1493.2 0C1422 0 1351 0 1280 0C1209 0 1138 0 1066.8 0C995.7 0 924.3 0 853.2 0C782 0 711 0 640 0C569 0 498 0 426.8 0C355.7 0 284.3 0 213.2 0C142 0 71 0 35.5 0L0 0Z" fill="#eb5967"></path><path d="M0 301L35.5 296.3C71 291.7 142 282.3 213.2 271.8C284.3 261.3 355.7 249.7 426.8 253.3C498 257 569 276 640 299.2C711 322.3 782 349.7 853.2 362.8C924.3 376 995.7 375 1066.8 352.5C1138 330 1209 286 1280 282.2C1351 278.3 1422 314.7 1493.2 328C1564.3 341.3 1635.7 331.7 1706.8 323.8C1778 316 1849 310 1884.5 307L1920 304L1920 0L1884.5 0C1849 0 1778 0 1706.8 0C1635.7 0 1564.3 0 1493.2 0C1422 0 1351 0 1280 0C1209 0 1138 0 1066.8 0C995.7 0 924.3 0 853.2 0C782 0 711 0 640 0C569 0 498 0 426.8 0C355.7 0 284.3 0 213.2 0C142 0 71 0 35.5 0L0 0Z" fill="#e34c67"></path><path d="M0 238L35.5 234.7C71 231.3 142 224.7 213.2 229.2C284.3 233.7 355.7 249.3 426.8 262.3C498 275.3 569 285.7 640 280.7C711 275.7 782 255.3 853.2 239.5C924.3 223.7 995.7 212.3 1066.8 219.2C1138 226 1209 251 1280 252.5C1351 254 1422 232 1493.2 236.7C1564.3 241.3 1635.7 272.7 1706.8 283.3C1778 294 1849 284 1884.5 279L1920 274L1920 0L1884.5 0C1849 0 1778 0 1706.8 0C1635.7 0 1564.3 0 1493.2 0C1422 0 1351 0 1280 0C1209 0 1138 0 1066.8 0C995.7 0 924.3 0 853.2 0C782 0 711 0 640 0C569 0 498 0 426.8 0C355.7 0 284.3 0 213.2 0C142 0 71 0 35.5 0L0 0Z" fill="#da3f67"></path><path d="M0 149L35.5 149.7C71 150.3 142 151.7 213.2 149C284.3 146.3 355.7 139.7 426.8 136.8C498 134 569 135 640 142C711 149 782 162 853.2 161.8C924.3 161.7 995.7 148.3 1066.8 150.5C1138 152.7 1209 170.3 1280 169C1351 167.7 1422 147.3 1493.2 143.3C1564.3 139.3 1635.7 151.7 1706.8 169.7C1778 187.7 1849 211.3 1884.5 223.2L1920 235L1920 0L1884.5 0C1849 0 1778 0 1706.8 0C1635.7 0 1564.3 0 1493.2 0C1422 0 1351 0 1280 0C1209 0 1138 0 1066.8 0C995.7 0 924.3 0 853.2 0C782 0 711 0 640 0C569 0 498 0 426.8 0C355.7 0 284.3 0 213.2 0C142 0 71 0 35.5 0L0 0Z" fill="#d03267"></path><path d="M0 104L35.5 101.8C71 99.7 142 95.3 213.2 95.3C284.3 95.3 355.7 99.7 426.8 103C498 106.3 569 108.7 640 100.8C711 93 782 75 853.2 81C924.3 87 995.7 117 1066.8 116.2C1138 115.3 1209 83.7 1280 77.7C1351 71.7 1422 91.3 1493.2 95.7C1564.3 100 1635.7 89 1706.8 80.5C1778 72 1849 66 1884.5 63L1920 60L1920 0L1884.5 0C1849 0 1778 0 1706.8 0C1635.7 0 1564.3 0 1493.2 0C1422 0 1351 0 1280 0C1209 0 1138 0 1066.8 0C995.7 0 924.3 0 853.2 0C782 0 711 0 640 0C569 0 498 0 426.8 0C355.7 0 284.3 0 213.2 0C142 0 71 0 35.5 0L0 0Z" fill="#c62368"></path></svg>