<svg id="visual" viewBox="0 0 1920 800" width="1920" height="800" xmlns="http://www.w3.org/2000/svg" xmlns:xlink="http://www.w3.org/1999/xlink" version="1.1"><rect x="0" y="0" width="1920" height="800" fill="#001220"></rect><path d="M0 284L45.7 278.8C91.3 273.7 182.7 263.3 274.2 255.3C365.7 247.3 457.3 241.7 548.8 254.5C640.3 267.3 731.7 298.7 823 304.2C914.3 309.7 1005.7 289.3 1097 269.5C1188.3 249.7 1279.7 230.3 1371.2 229.2C1462.7 228 1554.3 245 1645.8 250.5C1737.3 256 1828.7 250 1874.3 247L1920 244L1920 0L1874.3 0C1828.7 0 1737.3 0 1645.8 0C1554.3 0 1462.7 0 1371.2 0C1279.7 0 1188.3 0 1097 0C1005.7 0 914.3 0 823 0C731.7 0 640.3 0 548.8 0C457.3 0 365.7 0 274.2 0C182.7 0 91.3 0 45.7 0L0 0Z" fill="#fa7268"></path><path d="M0 194L45.7 198.8C91.3 203.7 182.7 213.3 274.2 219.3C365.7 225.3 457.3 227.7 548.8 217.8C640.3 208 731.7 186 823 185.5C914.3 185 1005.7 206 1097 206.7C1188.3 207.3 1279.7 187.7 1371.2 192.8C1462.7 198 1554.3 228 1645.8 243C1737.3 258 1828.7 258 1874.3 258L1920 258L1920 0L1874.3 0C1828.7 0 1737.3 0 1645.8 0C1554.3 0 1462.7 0 1371.2 0C1279.7 0 1188.3 0 1097 0C1005.7 0 914.3 0 823 0C731.7 0 640.3 0 548.8 0C457.3 0 365.7 0 274.2 0C182.7 0 91.3 0 45.7 0L0 0Z" fill="#ef5f67"></path><path d="M0 200L45.7 200.3C91.3 200.7 182.7 201.3 274.2 203.7C365.7 206 457.3 210 548.8 200.2C640.3 190.3 731.7 166.7 823 162.2C914.3 157.7 1005.7 172.3 1097 181.3C1188.3 190.3 1279.7 193.7 1371.2 181.8C1462.7 170 1554.3 143 1645.8 142.7C1737.3 142.3 1828.7 168.7 1874.3 181.8L1920 195L1920 0L1874.3 0C1828.7 0 1737.3 0 1645.8 0C1554.3 0 1462.7 0 1371.2 0C1279.7 0 1188.3 0 1097 0C1005.7 0 914.3 0 823 0C731.7 0 640.3 0 548.8 0C457.3 0 365.7 0 274.2 0C182.7 0 91.3 0 45.7 0L0 0Z" fill="#e34c67"></path><path d="M0 88L45.7 91C91.3 94 182.7 100 274.2 107.3C365.7 114.7 457.3 123.3 548.8 118.8C640.3 114.3 731.7 96.7 823 100.2C914.3 103.7 1005.7 128.3 1097 137.3C1188.3 146.3 1279.7 139.7 1371.2 137C1462.7 134.3 1554.3 135.7 1645.8 132C1737.3 128.3 1828.7 119.7 1874.3 115.3L1920 111L1920 0L1874.3 0C1828.7 0 1737.3 0 1645.8 0C1554.3 0 1462.7 0 1371.2 0C1279.7 0 1188.3 0 1097 0C1005.7 0 914.3 0 823 0C731.7 0 640.3 0 548.8 0C457.3 0 365.7 0 274.2 0C182.7 0 91.3 0 45.7 0L0 0Z" fill="#d53867"></path><path d="M0 44L45.7 46.3C91.3 48.7 182.7 53.3 274.2 56.5C365.7 59.7 457.3 61.3 548.8 66.5C640.3 71.7 731.7 80.3 823 85.5C914.3 90.7 1005.7 92.3 1097 91.7C1188.3 91 1279.7 88 1371.2 86.7C1462.7 85.3 1554.3 85.7 1645.8 81.8C1737.3 78 1828.7 70 1874.3 66L1920 62L1920 0L1874.3 0C1828.7 0 1737.3 0 1645.8 0C1554.3 0 1462.7 0 1371.2 0C1279.7 0 1188.3 0 1097 0C1005.7 0 914.3 0 823 0C731.7 0 640.3 0 548.8 0C457.3 0 365.7 0 274.2 0C182.7 0 91.3 0 45.7 0L0 0Z" fill="#c62368"></path></svg>